<?xml version="1.0" encoding="utf-8"?>
<!-- Generator: Adobe Illustrator 24.0.1, SVG Export Plug-In . SVG Version: 6.00 Build 0)  -->
<svg version="1.1"
	 id="svg3070" inkscape:version="0.48.0 r9654" sodipodi:docname="New document 4" xmlns:cc="http://creativecommons.org/ns#" xmlns:dc="http://purl.org/dc/elements/1.1/" xmlns:inkscape="http://www.inkscape.org/namespaces/inkscape" xmlns:rdf="http://www.w3.org/1999/02/22-rdf-syntax-ns#" xmlns:sodipodi="http://sodipodi.sourceforge.net/DTD/sodipodi-0.dtd" xmlns:svg="http://www.w3.org/2000/svg"
	 xmlns="http://www.w3.org/2000/svg" xmlns:xlink="http://www.w3.org/1999/xlink" x="0px" y="0px" viewBox="0 0 75.8 76.3"
	 style="enable-background:new 0 0 75.8 76.3;" xml:space="preserve">
<path d="M70.2,0H5.6C2.5,0,0,2.4,0,5.5v65.3c0,3.1,2.5,5.5,5.6,5.5h64.6c3.1,0,5.6-2.4,5.6-5.5V5.5C75.8,2.4,73.3,0,70.2,0z
	 M22.9,63.9H11.5V29.4h11.4V63.9z M17.2,24.8L17.2,24.8L17.2,24.8c-3.9,0-6.4-2.6-6.4-5.9c0-3.4,2.5-5.9,6.5-5.9
	c3.9,0,6.3,2.5,6.4,5.9C23.7,22.1,21.2,24.8,17.2,24.8z M64.2,63.9H52.8V45.4c0-4.6-1.6-7.7-5.8-7.7c-3.2,0-5.1,2.1-5.9,4.2
	c-0.3,0.7-0.4,1.7-0.4,2.8v19.3H29.2c0,0,0.1-31.2,0-34.4h11.4v4.9c1.5-2.3,4.3-5.7,10.3-5.7c7.5,0,13.1,4.9,13.1,15.5v19.8H64.2z"
	/>
</svg>
