<?xml version="1.0" encoding="utf-8"?>
<!-- Generator: Adobe Illustrator 24.0.1, SVG Export Plug-In . SVG Version: 6.00 Build 0)  -->
<svg version="1.1" id="Layer_1" xmlns="http://www.w3.org/2000/svg" xmlns:xlink="http://www.w3.org/1999/xlink" x="0px" y="0px"
	 viewBox="0 0 341 361" style="enable-background:new 0 0 341 361;" xml:space="preserve">
<style type="text/css">
	.st0{fill:none;stroke:#000000;stroke-width:23.0693;}
</style>
<path class="st0" d="M115.1,22.7l178.2,44.4c18.5,4.6,29.8,23.4,25.2,41.9l-50.8,203.8c-4.6,18.5-23.4,29.8-41.9,25.2L47.6,293.7
	c-18.5-4.6-29.8-23.4-25.2-41.9L73.2,47.9C77.8,29.4,96.6,18.1,115.1,22.7z"/>
<path d="M108,80.4l165.5,41.3c3.8,0.9,6,4.7,5.1,8.5l-2.2,8.8c-0.9,3.8-4.7,6-8.5,5.1l-165.5-41.3c-3.8-0.9-6-4.7-5.1-8.5l2.2-8.8
	C100.4,81.7,104.2,79.4,108,80.4z"/>
<path d="M95.4,132.7L260.9,174c3.8,0.9,6,4.7,5.1,8.5l-2.2,8.8c-0.9,3.8-4.7,6-8.5,5.1L89.8,155.1c-3.8-0.9-6-4.7-5.1-8.5l2.2-8.8
	C87.8,134,91.6,131.8,95.4,132.7z"/>
<path d="M82.4,181.7l76,18.9c3.8,0.9,6,4.7,5.1,8.5l-2.2,8.8c-0.9,3.8-4.7,6-8.5,5.1l-76-18.9c-3.8-0.9-6-4.7-5.1-8.5l2.2-8.8
	C74.8,183,78.6,180.8,82.4,181.7z"/>
</svg>
