<?xml version="1.0" encoding="utf-8"?>
<!-- Generator: Adobe Illustrator 24.0.1, SVG Export Plug-In . SVG Version: 6.00 Build 0)  -->
<svg version="1.1" id="Layer_1" xmlns="http://www.w3.org/2000/svg" xmlns:xlink="http://www.w3.org/1999/xlink" x="0px" y="0px"
	 viewBox="0 0 20 24" style="enable-background:new 0 0 20 24;" xml:space="preserve">
<style type="text/css">
	.st0{fill:#FFFFFF;}
</style>
<path class="st0" d="M0,1.5C0,0.7,0.7,0,1.5,0h7C9.3,0,10,0.7,10,1.5V8H1.5C0.7,8,0,7.3,0,6.5V1.5z"/>
<path class="st0" d="M10,8h8.5C19.3,8,20,8.7,20,9.5v5c0,0.8-0.7,1.5-1.5,1.5H10V8z"/>
<path class="st0" d="M0,17.5C0,16.7,0.7,16,1.5,16H10v6.5c0,0.8-0.7,1.5-1.5,1.5h-7C0.7,24,0,23.3,0,22.5V17.5z"/>
</svg>
